<svg width="55" height="83" viewBox="0 0 55 83" fill="none" xmlns="http://www.w3.org/2000/svg">
<path d="M7.30597 75.2638C8.16081 79.3829 13.0334 74.3199 13.0334 74.3199L18.8463 73.6334C18.8463 73.6334 22.5221 73.7192 24.9156 75.6071C27.3092 77.495 28.9334 75.0064 28.9334 75.0064C31.63 75.9087 34.9338 75.9051 37.7951 75.6161C41.9181 75.1997 45.2229 72.005 45.7896 67.8843C48.9861 44.6391 31.4124 33.2155 31.4124 33.2155L26.2834 19.3139C26.2834 19.3139 27.9076 15.2807 28.4205 11.6765C28.9334 8.07239 25.1721 4.63987 20.556 1.20736C18.5364 -0.294365 16.2223 -0.186428 14.258 0.410155C12.0544 1.0794 10.1322 2.45564 8.71185 4.27451C7.53517 5.78137 5.51692 7.91549 3.29848 8.2852C2.53084 8.4122 1.77345 8.7177 1.06564 9.27377C0.333897 9.84871 0.0107765 10.8081 0.000518402 12.0009C-0.0541929 17.2115 4.23197 23.4844 7.98983 24.4626C12.606 25.664 10.1269 37.0771 10.1269 37.0771C2.60435 47.7179 7.90435 59.5601 7.90435 59.5601L6.53661 69.1711C6.53661 69.1711 6.45113 71.1448 7.30597 75.2638Z" fill="#3F3D56"/>
<path d="M32.4382 53.1242L30.5576 76.6369C30.5576 76.6369 33.1221 83.1587 24.4027 82.8155C15.6834 82.4722 20.8124 69.0854 20.8124 69.0854L23.5479 51.5796" fill="#3F3D56"/>
<path d="M25.0515 83C24.8383 83 24.6201 82.9957 24.396 82.9868C22.4658 82.9109 21.0444 82.1972 20.1712 80.8658C17.6747 77.0588 20.4514 69.5546 20.6462 69.0409L23.3789 51.5528C23.3936 51.4591 23.4804 51.3961 23.5744 51.4098C23.6676 51.4246 23.7313 51.5124 23.7168 51.6061L20.9813 69.1119C20.9793 69.1238 20.9763 69.1356 20.972 69.147C20.9421 69.2246 18.0225 76.9655 20.4571 80.6774C21.2662 81.9108 22.5958 82.5725 24.4094 82.6439C27.2564 82.7553 29.1712 82.1456 30.1022 80.8301C31.3202 79.109 30.4078 76.7236 30.3984 76.6997C30.3889 76.6754 30.385 76.649 30.387 76.6231L32.2677 53.1103C32.2752 53.016 32.356 52.9471 32.4519 52.953C32.546 52.9607 32.6161 53.0433 32.6086 53.1378L30.731 76.612C30.8552 76.9485 31.6341 79.2558 30.3824 81.0268C29.4562 82.3373 27.6643 83 25.0515 83Z" fill="#2F2E41"/>
<path d="M16.8802 57.9297C16.8802 57.9297 17.3931 79.7261 6.6221 79.2113C-4.14887 78.6964 5.59629 71.8314 5.59629 71.8314L6.53661 69.1712" fill="#3F3D56"/>
<path d="M0.000549316 12.0009C1.2281 12.1485 3.14977 12.1416 4.74148 11.0758C6.44602 9.93448 4.67651 8.87039 3.29851 8.28516C2.53087 8.41216 1.77348 8.71766 1.06567 9.27372C0.333928 9.84866 0.0108074 10.8081 0.000549316 12.0009Z" fill="#2F2E41"/>
<path d="M19.8376 8.91482C19.8376 8.91482 16.8543 1.22318 21.1271 1.11555C25.4 1.00792 28.775 7.67335 28.775 7.67335C28.775 7.67335 39.4994 27.2975 24.8061 26.2392C10.1129 25.1809 17.1342 17.3472 17.1342 17.3472C17.1342 17.3472 20.4854 13.2111 19.8376 8.91482Z" fill="#2F2E41"/>
<path d="M36.206 66.3936C38.0983 67.2386 40.0753 68.1009 42.1447 68.0184C44.2141 67.936 46.3918 66.5981 46.7143 64.5445C46.8807 63.4844 46.5506 62.347 46.9549 61.3535C47.499 60.0168 49.2539 59.5013 50.618 59.9593C51.9822 60.4174 52.9844 61.5987 53.7029 62.8496C55.0473 65.19 55.586 68.2618 54.1445 70.5432C52.895 72.521 50.525 73.4147 48.3205 74.1813C45.3841 75.2023 42.1056 76.2157 39.2602 74.9615C36.3986 73.7001 34.8398 70.0557 35.8994 67.1041" fill="#3F3D56"/>
<path d="M29.8932 29.3345C29.8932 29.3345 33.6545 31.2223 31.7739 33.2819C29.8932 35.3414 18.2674 41.1766 13.9932 40.3185C9.71904 39.4604 8.69324 36.886 8.69324 36.1995C8.69324 35.513 9.01565 27.2086 10.3834 27.5519C11.7511 27.8951 20.319 35.6846 29.8932 29.3345Z" fill="#D9D9D9"/>
</svg>
